<svg version="1.0" xmlns="http://www.w3.org/2000/svg"
 width="300.000000pt" height="109.000000pt" viewBox="0 0 300.000000 109.000000"
 preserveAspectRatio="xMidYMid meet">
<metadata>
Created by potrace 1.10, written by Peter Selinger 2001-2011
</metadata>
<g transform="translate(0.000000,109.000000) scale(0.050000,-0.050000)"
fill="#d9d1b7" stroke="none">
<path d="M3075 1916 c-100 -21 -130 -71 -55 -90 38 -10 40 -27 40 -366 0 -339
-2 -356 -40 -366 -116 -30 -39 -74 130 -74 177 0 225 29 130 80 -33 18 -40 42
-40 134 l0 113 82 -119 c135 -194 152 -208 261 -208 104 0 133 39 59 79 -20
11 -84 83 -141 159 l-103 139 73 72 c39 40 98 78 130 84 130 26 74 87 -80 87
-142 0 -194 -26 -136 -69 27 -19 19 -36 -59 -117 l-89 -95 5 285 c7 325 16
311 -167 272z"/>
<path d="M5168 1893 c-23 -61 1 -263 32 -263 23 0 31 32 36 145 6 140 -33 208
-68 118z"/>
<path d="M503 1856 c-10 -25 -70 -198 -134 -383 -87 -253 -127 -344 -162 -367
-93 -61 -59 -86 113 -86 170 0 221 38 108 81 -36 13 -48 29 -40 51 7 18 18 53
24 80 18 71 276 74 295 3 23 -84 14 -130 -27 -141 -22 -6 -40 -25 -40 -42 0
-35 367 -50 388 -16 13 22 -11 54 -51 69 -22 8 -76 142 -161 399 l-129 386
-84 6 c-71 5 -86 0 -100 -40z m157 -471 c0 -3 -45 -5 -100 -5 -55 0 -100 3
-100 7 0 7 71 218 92 273 8 22 105 -226 108 -275z"/>
<path d="M3824 1876 c-37 -37 -29 -106 17 -147 80 -73 207 59 138 142 -29 35
-122 38 -155 5z"/>
<path d="M4888 1817 c-17 -28 93 -237 126 -237 48 0 44 37 -16 147 -61 114
-84 132 -110 90z"/>
<path d="M5421 1746 c-65 -104 -77 -166 -33 -166 29 0 132 165 132 211 0 63
-43 43 -99 -45z"/>
<path d="M1185 1636 c-116 -21 -140 -64 -55 -96 95 -36 66 -460 -31 -460 -11
0 -19 -13 -19 -30 0 -25 35 -30 191 -30 172 0 191 4 185 35 -3 19 -27 38 -51
41 -52 8 -70 351 -21 400 34 34 96 30 96 -7 0 -42 54 -59 90 -29 41 34 40 172
-2 188 -59 23 -105 12 -166 -40 l-62 -52 0 52 c0 57 0 56 -155 28z"/>
<path d="M1850 1650 c-11 -4 -54 -12 -95 -19 -83 -14 -99 -57 -35 -91 36 -19
40 -42 40 -223 0 -184 -3 -202 -40 -211 -22 -6 -40 -27 -40 -48 0 -35 17 -38
190 -38 192 0 262 35 145 71 -66 21 -74 44 -75 213 0 200 70 283 146 171 45
-67 104 -25 104 75 0 126 -107 147 -213 42 l-48 -49 0 53 c1 50 -30 71 -79 54z"/>
<path d="M2365 1620 c-53 -32 -65 -52 -65 -108 0 -110 94 -114 142 -5 30 69
100 93 149 52 37 -31 39 -159 3 -159 -68 0 -244 -68 -286 -111 -159 -158 54
-367 251 -247 62 38 71 39 92 10 32 -44 129 -58 189 -27 67 35 76 90 16 98
-44 7 -46 15 -51 197 -6 246 -14 273 -84 310 -86 44 -276 39 -356 -10z m255
-377 c0 -83 -57 -134 -132 -120 -61 12 -52 139 12 171 91 46 120 34 120 -51z"/>
<path d="M3841 1633 c-113 -24 -155 -68 -83 -87 63 -16 65 -436 2 -456 -110
-35 -39 -70 140 -70 178 0 259 43 141 74 -37 10 -40 31 -45 282 -7 300 0 290
-155 257z"/>
<path d="M4198 1602 c-112 -113 -75 -233 101 -322 132 -66 149 -84 132 -138
-28 -86 -189 -57 -211 38 -25 106 -83 73 -76 -43 l6 -107 92 -18 c354 -68 495
237 181 392 -94 47 -133 77 -133 104 0 84 154 94 180 12 22 -70 90 -50 90 26
0 134 -245 172 -362 56z"/>
<path d="M4692 1586 c-30 -31 -5 -66 82 -115 89 -50 157 -55 142 -10 -9 28
-209 140 -224 125z"/>
<path d="M5060 1535 c-111 -75 -150 -145 -150 -265 l0 -108 -135 -54 c-143
-58 -160 -84 -103 -164 27 -39 48 -45 155 -43 81 2 204 -19 363 -61 329 -87
408 -94 471 -42 l49 41 -78 0 c-132 1 -450 84 -397 103 25 9 45 25 45 36 0 21
-110 105 -122 93 -5 -4 -20 6 -34 22 -41 44 31 23 286 -82 223 -91 350 -115
350 -64 0 15 -35 37 -78 50 -43 13 -110 37 -148 53 l-70 29 30 85 c90 261
-214 521 -434 371z m256 -76 c81 -49 132 -160 115 -252 -18 -95 -34 -96 -190
-17 -136 68 -144 70 -201 40 -58 -30 -60 -30 -60 17 0 197 177 309 336 212z"/>
<path d="M5574 1528 c-92 -48 -114 -92 -52 -104 40 -7 223 112 208 136 -18 30
-50 23 -156 -32z"/>
<path d="M4777 793 c35 -37 73 -50 179 -59 74 -7 188 -27 254 -45 165 -44 300
-47 341 -7 29 30 24 34 -72 46 -57 8 -197 36 -311 63 -114 27 -259 49 -321 49
l-114 0 44 -47z"/>
<path d="M205 767 c-27 -11 -35 -127 -9 -127 9 0 34 -14 55 -31 37 -30 37 -31
-16 -23 -43 7 -55 0 -55 -27 0 -74 122 -70 162 5 23 43 -24 116 -75 116 -15 0
-27 10 -27 22 0 14 19 17 52 9 42 -10 50 -6 44 23 -6 36 -80 54 -131 33z"/>
<path d="M444 749 c-62 -44 -62 -174 0 -218 60 -42 108 -39 156 9 82 82 30
240 -80 240 -17 0 -51 -14 -76 -31z m115 -58 c13 -16 21 -45 17 -65 -9 -49
-103 -49 -112 0 -7 36 28 94 56 94 8 0 26 -13 39 -29z"/>
<path d="M716 766 c-23 -45 -1 -256 26 -256 15 0 31 20 34 45 4 29 21 45 45
45 22 0 39 14 39 30 0 17 -18 30 -40 30 -22 0 -40 13 -40 30 0 19 19 30 52 30
79 0 47 49 -37 56 -39 3 -75 -1 -79 -10z"/>
<path d="M900 751 c0 -28 23 -40 65 -33 8 1 15 -48 15 -110 0 -147 47 -139 56
9 5 85 12 103 40 99 19 -4 34 7 34 24 0 22 -28 32 -105 36 -84 5 -105 0 -105
-25z"/>
<path d="M1140 765 c0 -14 51 -189 69 -240 16 -43 66 -5 81 61 l14 64 19 -66
c29 -103 78 -76 120 65 19 66 32 123 27 128 -23 22 -66 -21 -80 -80 l-15 -67
-19 75 c-24 92 -64 97 -90 10 -21 -66 -25 -63 -55 35 -10 30 -71 43 -71 15z"/>
<path d="M1570 755 c-5 -14 -26 -72 -47 -130 -42 -113 -21 -169 33 -88 37 55
65 54 113 -1 58 -68 62 -13 11 125 -42 112 -90 153 -110 94z"/>
<path d="M1780 650 c0 -102 6 -130 30 -130 18 0 30 18 30 45 0 43 2 42 47 -13
57 -72 113 -56 64 19 -19 29 -23 52 -11 59 69 43 2 150 -94 150 l-66 0 0 -130z"/>
<path d="M2044 647 l6 -134 80 -1 c95 -2 117 54 25 64 -70 8 -72 44 -3 44 62
0 55 47 -9 56 -60 9 -54 44 7 44 31 0 50 11 50 30 0 22 -22 30 -81 30 l-81 0
6 -133z"/>
<path d="M2404 756 c-42 -42 -26 -94 41 -130 l65 -36 -65 -6 c-77 -8 -88 -57
-17 -75 124 -31 184 103 72 161 -72 37 -78 59 -11 42 55 -14 91 23 49 50 -40
25 -106 22 -134 -6z"/>
<path d="M2650 740 c-86 -95 -8 -258 109 -230 65 16 101 63 101 134 0 116
-136 178 -210 96z m126 -44 c33 -33 30 -67 -8 -105 -40 -40 -88 -8 -88 58 0
72 48 95 96 47z"/>
<path d="M2924 645 l6 -135 70 0 c50 0 71 10 76 35 5 26 -6 35 -45 35 -48 0
-51 6 -51 100 0 77 -7 100 -31 100 -25 0 -30 -24 -25 -135z"/>
<path d="M3120 681 c0 -156 92 -229 180 -141 50 50 59 240 11 240 -20 0 -31
-28 -35 -95 -9 -139 -71 -148 -80 -11 -9 145 -76 152 -76 7z"/>
<path d="M3384 746 c4 -21 22 -34 42 -30 29 5 34 -12 34 -107 0 -143 45 -141
60 3 7 69 19 98 40 98 92 0 21 60 -77 66 -94 5 -105 2 -99 -30z"/>
<path d="M3640 650 c0 -102 6 -130 30 -130 24 0 30 28 30 130 0 102 -6 130
-30 130 -24 0 -30 -28 -30 -130z"/>
<path d="M3800 740 c-74 -74 -11 -240 90 -240 48 0 130 92 130 145 0 113 -141
174 -220 95z m137 -76 c8 -56 -30 -106 -68 -91 -30 12 -40 109 -15 134 27 28
76 2 83 -43z"/>
<path d="M4080 650 c0 -102 6 -130 30 -130 20 0 30 21 30 65 l0 65 39 -58 c78
-120 101 -109 101 47 0 152 -51 212 -64 76 l-6 -65 -39 65 c-63 104 -91 84
-91 -65z"/>
<path d="M4371 749 c-49 -50 -43 -66 59 -139 38 -27 37 -29 -25 -29 -74 -1
-85 -29 -22 -62 30 -17 55 -17 90 -1 66 30 64 115 -3 146 -58 26 -68 64 -12
47 47 -15 78 26 40 51 -43 27 -92 21 -127 -13z"/>
<path d="M4920 661 c0 -57 348 -127 417 -83 40 25 9 37 -187 71 -204 36 -230
37 -230 12z"/>
</g>
</svg>
