<svg id="Layer_1" data-name="Layer 1" xmlns="http://www.w3.org/2000/svg" viewBox="0 0 777 170.04"><path d="M572.87,220.1l7.28,20.58h3.32L591,220.1h-3.64l-3.72,11.52c-.63,1.91-1.18,3.61-1.62,5.32h-.12a55.37,55.37,0,0,0-1.54-5.32l-3.75-11.52Zm-15.46,8.29c.28-2.6,1.78-6,5.34-6,3.91,0,4.86,3.7,4.82,6Zm13.4,2.68a9.77,9.77,0,0,0,.12-1.75c0-3.78-1.62-9.65-7.9-9.65-5.58,0-9,4.85-9,11.06s3.52,10.42,9.41,10.42a14.75,14.75,0,0,0,6.41-1.32l-.64-2.68a11.72,11.72,0,0,1-5.29,1.06c-3.52,0-6.49-2.08-6.57-7.14Zm-24.59.85a7.24,7.24,0,0,1-.27,2,5.07,5.07,0,0,1-4.83,3.82c-3.71,0-5.65-3.36-5.65-7.4,0-4.76,2.37-7.78,5.69-7.78a5,5,0,0,1,4.86,4,5.21,5.21,0,0,1,.2,1.66Zm3.48-6.21c0-2.47,0-4.17.16-5.61h-3.08l-.12,3.1h-.08a6.33,6.33,0,0,0-6-3.53c-4.43,0-8.66,3.91-8.66,10.89,0,5.7,3.4,10,8.14,10a6.68,6.68,0,0,0,6.09-3.44h.08v2.25c0,5.23-2.61,7.23-6.17,7.23a9.83,9.83,0,0,1-5.61-1.66l-.87,2.89a11.64,11.64,0,0,0,6.37,1.71,10,10,0,0,0,7-2.47c1.82-1.83,2.73-4.68,2.73-9.44Zm-34.2,2.68c.28-2.6,1.78-6,5.34-6,3.92,0,4.86,3.7,4.82,6Zm13.41,2.68a11,11,0,0,0,.11-1.75c0-3.78-1.62-9.65-7.9-9.65-5.58,0-9,4.85-9,11.06s3.52,10.42,9.41,10.42a14.75,14.75,0,0,0,6.41-1.32l-.64-2.68a11.72,11.72,0,0,1-5.29,1.06c-3.52,0-6.49-2.08-6.57-7.14Zm-38,9.61V228.43c0-4.76,0-8.21-.24-11.82l.12-.05a85.7,85.7,0,0,0,4.95,9.57l8.46,14.55h3.48V212h-3.25v12c0,4.46.08,8,.4,11.78l-.12,0a83,83,0,0,0-4.74-9.31L491.43,212h-3.8v28.67ZM461.3,228.39c.28-2.6,1.78-6,5.34-6,3.91,0,4.86,3.7,4.82,6Zm13.4,2.68a9.77,9.77,0,0,0,.12-1.75c0-3.78-1.62-9.65-7.91-9.65-5.57,0-9,4.85-9,11.06s3.52,10.42,9.41,10.42a14.7,14.7,0,0,0,6.4-1.32l-.63-2.68a11.77,11.77,0,0,1-5.3,1.06c-3.52,0-6.48-2.08-6.56-7.14Zm-37.32,9.61h3.48V228.26a5.3,5.3,0,0,1,4.9-5.49c3.28,0,4.43,2.77,4.43,6.09v11.82h3.48V228.43c0-7.06-4.11-8.76-6.68-8.76a6.73,6.73,0,0,0-3.56,1,6.81,6.81,0,0,0-2.49,2.68h-.08V210.48h-3.48Zm-12.3-24.41v3.83h-3v2.84h3v11.23c0,2.43.4,4.25,1.35,5.4a4.77,4.77,0,0,0,3.75,1.58,9,9,0,0,0,3.09-.51l-.16-2.85a6.1,6.1,0,0,1-2,.25c-1.93,0-2.61-1.44-2.61-4v-11.1h5V220.1h-5v-4.94Zm-16.92,24.41V222.94h4.63V220.1h-4.63V219c0-3.19.75-6,3.72-6a4.8,4.8,0,0,1,2.21.46l.48-2.89a7.42,7.42,0,0,0-3-.59,6.38,6.38,0,0,0-4.66,1.91c-1.58,1.66-2.22,4.29-2.22,7.19v1h-2.65v2.84h2.65v17.74Zm-17.47-18.2c4.11,0,5.73,4.38,5.73,7.86,0,4.64-2.49,8-5.81,8s-5.77-3.4-5.77-7.91c0-3.87,1.77-8,5.85-8m.08-2.81c-5.26,0-9.49,4-9.49,10.89,0,6.5,4,10.59,9.17,10.59,4.59,0,9.53-3.32,9.53-10.93,0-6.26-3.72-10.55-9.21-10.55m-37.64.43,7,19a2.75,2.75,0,0,1,.28,1,2.79,2.79,0,0,1-.28.89,11.72,11.72,0,0,1-2.92,4.17,9,9,0,0,1-3,1.83l.87,3.1a9.47,9.47,0,0,0,4.26-2.38c2.38-2.25,4.08-5.82,6.57-12.88l5.22-14.67h-3.68l-3.8,12.07c-.47,1.49-.86,3.06-1.22,4.3h-.08c-.32-1.24-.79-2.85-1.26-4.21l-4.16-12.16ZM343,216.27v3.83h-3v2.84h3v11.23c0,2.43.39,4.25,1.34,5.4a4.79,4.79,0,0,0,3.76,1.58,9,9,0,0,0,3.08-.51l-.16-2.85a6,6,0,0,1-2,.25c-1.94,0-2.61-1.44-2.61-4v-11.1h5V220.1h-5v-4.94ZM334.7,212a2.21,2.21,0,0,0-2.17,2.34,2.13,2.13,0,0,0,2.1,2.3,2.33,2.33,0,0,0,.07-4.64m1.74,8.13H333v20.58h3.47ZM316,239.7a10.36,10.36,0,0,0,5.38,1.45c4.47,0,7.12-2.56,7.12-6.21,0-3.06-1.74-4.85-5-6.17-2.49-1.06-3.6-1.83-3.6-3.53a2.84,2.84,0,0,1,3.16-2.81,7.09,7.09,0,0,1,3.92,1.24l.83-2.73a8.45,8.45,0,0,0-4.67-1.27c-4.07,0-6.6,2.72-6.6,6,0,2.47,1.62,4.46,5.1,5.83,2.53,1,3.52,2,3.52,3.74s-1.19,3.06-3.68,3.06a9.36,9.36,0,0,1-4.63-1.45Zm-11.62,1h3.48v-11A11.93,11.93,0,0,1,308,228c.47-2.8,2.21-4.76,4.66-4.76a5.39,5.39,0,0,1,1.19.08v-3.53a7,7,0,0,0-.95-.08c-2.33,0-4.47,1.74-5.34,4.51h-.12l-.15-4.08h-3c.12,1.91.16,4,.16,6.42Zm-17.83-12.29c.28-2.6,1.78-6,5.34-6,3.91,0,4.86,3.7,4.82,6Zm13.4,2.68a9.77,9.77,0,0,0,.12-1.75c0-3.78-1.62-9.65-7.91-9.65-5.57,0-9,4.85-9,11.06s3.52,10.42,9.41,10.42a14.7,14.7,0,0,0,6.4-1.32l-.63-2.68a11.77,11.77,0,0,1-5.3,1.06c-3.52,0-6.48-2.08-6.56-7.14Zm-36.37-11,7.27,20.58h3.32l7.52-20.58h-3.64l-3.72,11.52c-.63,1.91-1.18,3.61-1.62,5.32h-.12c-.39-1.71-.91-3.41-1.54-5.32L267.3,220.1ZM258.44,212a2.21,2.21,0,0,0-2.18,2.34,2.13,2.13,0,0,0,2.1,2.3,2.33,2.33,0,0,0,.08-4.64m1.74,8.13H256.7v20.58h3.48Zm-25.42,20.58h3.48V228.3a5.69,5.69,0,0,1,.23-1.74,5.11,5.11,0,0,1,4.67-3.83c3.28,0,4.43,2.77,4.43,6.08v11.87h3.48V228.43c0-7.06-4.12-8.76-6.76-8.76A7,7,0,0,0,238,223.5h-.08l-.2-3.4H234.6c.12,1.7.16,3.4.16,5.57ZM209.26,212V228.9c0,8.93,4.11,12.25,9.56,12.25,5.78,0,10.09-3.58,10.09-12.38V212h-3.48v17c0,6.29-2.57,9.1-6.49,9.1-3.56,0-6.2-2.73-6.2-9.1V212Zm-30.41,28.67h3.48V228.3a5.67,5.67,0,0,1,.24-1.74,5.1,5.1,0,0,1,4.66-3.83c3.29,0,4.43,2.77,4.43,6.08v11.87h3.48V228.43c0-7.06-4.11-8.76-6.76-8.76a7,7,0,0,0-6.33,3.83H182l-.2-3.4H178.7c.11,1.7.15,3.4.15,5.57Zm-13.68-18.2c4.11,0,5.74,4.38,5.74,7.86,0,4.64-2.49,8-5.82,8s-5.77-3.4-5.77-7.91c0-3.87,1.78-8,5.85-8m.08-2.81c-5.26,0-9.49,4-9.49,10.89,0,6.5,4,10.59,9.18,10.59,4.58,0,9.52-3.32,9.52-10.93,0-6.26-3.71-10.55-9.21-10.55M149.63,212a2.21,2.21,0,0,0-2.17,2.34,2.13,2.13,0,0,0,2.1,2.3,2.33,2.33,0,0,0,.07-4.64m1.75,8.13H147.9v20.58h3.48Zm-16.57,20.58h3.48v-11a11.93,11.93,0,0,1,.12-1.75c.47-2.8,2.21-4.76,4.66-4.76a5.39,5.39,0,0,1,1.19.08v-3.53a7,7,0,0,0-.95-.08c-2.33,0-4.47,1.74-5.34,4.51h-.12l-.15-4.08h-3c.12,1.91.16,4,.16,6.42ZM129,220.1h-3.48v12.58a5.43,5.43,0,0,1-.32,1.92,5,5,0,0,1-4.58,3.44c-3.13,0-4.28-2.68-4.28-6.59V220.1h-3.47v12c0,7.19,3.59,9,6.6,9a7.08,7.08,0,0,0,6.32-3.83h.08l.2,3.36h3.09c-.12-1.62-.16-3.49-.16-5.66Zm-21.12,5.52H99.15v3h5.37v8.55a10.59,10.59,0,0,1-4.58.76c-6.25,0-10.28-4.29-10.28-11.56s4.23-11.53,10.71-11.53a12.47,12.47,0,0,1,5.89,1.23l.87-3a15.56,15.56,0,0,0-6.68-1.32C91.52,211.72,86,218,86,226.52c0,4.46,1.42,8.29,3.72,10.67,2.61,2.68,5.93,3.79,10,3.79a22.49,22.49,0,0,0,8.22-1.58Zm-34.83,4.94h9.77v-2.73H73.09ZM52.85,240.68h3.48V228.3a5.67,5.67,0,0,1,.24-1.74,5.1,5.1,0,0,1,4.66-3.83c3.28,0,4.43,2.77,4.43,6.08v11.87h3.48V228.43c0-7.06-4.11-8.76-6.76-8.76a7,7,0,0,0-6.33,3.83H56l-.19-3.4H52.69c.12,1.7.16,3.4.16,5.57ZM35,228.39c.28-2.6,1.78-6,5.34-6,3.91,0,4.86,3.7,4.82,6Zm13.4,2.68a9.77,9.77,0,0,0,.12-1.75c0-3.78-1.62-9.65-7.91-9.65-5.57,0-9,4.85-9,11.06s3.52,10.42,9.41,10.42a14.7,14.7,0,0,0,6.4-1.32l-.63-2.68a11.77,11.77,0,0,1-5.3,1.06c-3.52,0-6.48-2.08-6.56-7.14ZM15,226.94h2.85c3.76,0,6.88,1.66,6.88,5.53,0,4.17-3.28,5.57-6.84,5.57a17.23,17.23,0,0,1-2.89-.17Zm0-12a13.62,13.62,0,0,1,3-.26c3.48,0,5.81,1.36,5.81,4.68,0,2.76-2.13,4.85-5.73,4.85H15Zm-3.44,25.68a37.56,37.56,0,0,0,5.34.34c4.35,0,7.36-.85,9.17-2.68a7.78,7.78,0,0,0,2.3-5.74,7.16,7.16,0,0,0-5.5-7.14v-.13A6.73,6.73,0,0,0,27.39,219a6.18,6.18,0,0,0-2.26-5.06c-1.62-1.45-3.83-2.09-7.27-2.09a28.47,28.47,0,0,0-6.29.64Z" transform="translate(-11.5 -114.98)" style="fill:#595a5c"/><path d="M788.5,200a85,85,0,1,1-85-85,85,85,0,0,1,85,85" transform="translate(-11.5 -114.98)" style="fill:#f89521"/><path d="M737.33,256.89c-13.92-8-12.36-22.92-4.19-34.37l-9.47-5.08c-12.1,8.5-13.2,28.57-5.07,39.45Z" transform="translate(-11.5 -114.98)" style="fill:#fff"/><path d="M694.71,256.89H713c-4.75-9.56-4.63-22.23-.36-31.84,5.66-12.75,23.32-19.8,22.89-35.86-.56-21.29-21.64-41.75-39.34-51.48,12.78,24.93-58.16,55.22-2.15,83.86a64.51,64.51,0,0,1,3-7,64.12,64.12,0,0,1,3.88-5.83c-33.58-15.83,3.21-37.76.55-61.63,8.48,9.21,21.11,28,19.79,40.87s-13.08,18-19.82,27.64-7.93,27.17-6.74,41.25" transform="translate(-11.5 -114.98)" style="fill:#fff"/><path d="M692.66,225.55s-4.4-2.08-7.06-3.68a101.92,101.92,0,0,1-9.4-6.87c4.1,14.56,4.34,31.83-7,41.89h21.31c-.38-12.29.09-21.22,2.12-31.34" transform="translate(-11.5 -114.98)" style="fill:#fff"/><path d="M591.74,191.92a112,112,0,0,0-8.47-12.69q6.65-7.71,6.65-16.55v-5.27h-4.77v8.24a21.91,21.91,0,0,1-3.53,11.47q-10.51-13.63-16-19.71h-5.21v.69q6.16,6.93,8.09,9.3a42.2,42.2,0,0,0-5.62,10.25,32.81,32.81,0,0,0-1.06,9.33v5.53h4.62V185.1q0-9.85,3.88-15.46A213.81,213.81,0,0,1,587,192.51h4.7Zm-37.59-27.36a7.51,7.51,0,0,0-2-5.67,5.88,5.88,0,0,0-4.15-1.61h-.21a6.11,6.11,0,0,0-2.4.33v3.33a3.33,3.33,0,0,0,.42-.1h.44q3.49,0,3.5,4.42v27.25h4.42Zm-14.45,4c0-3.86-1.05-6.79-3.15-8.77a9.8,9.8,0,0,0-7-2.57,6.68,6.68,0,0,0-3.36.66v3.6l.34.06a5.51,5.51,0,0,1,2.44-.59q6.27,0,6.27,8.07v19.78h-9.84v3.72H539.7Zm-21.13-4a7.55,7.55,0,0,0-2-5.67,5.88,5.88,0,0,0-4.15-1.61h-.21a6.11,6.11,0,0,0-2.4.33v3.33a3,3,0,0,0,.41-.1h.45q3.5,0,3.5,4.42v11.66h4.42Zm-11.5,24.23H504.6c-1.26,0-1.89-1-1.89-3.1V172.34q0-7.58-4.62-11.7a15,15,0,0,0-10.18-3.49,23.13,23.13,0,0,0-7.44,1.09v4h.41a14.51,14.51,0,0,1,6.17-1.19q11.31,0,11.31,12.56v11.86a5.56,5.56,0,0,0,.69,3.3H479.41v3.72h27.66Zm-34.16-16.58q0-7.58-5-11.63a16.24,16.24,0,0,0-10.73-3.5,24.19,24.19,0,0,0-7.3.93v4.05h.42a14.94,14.94,0,0,1,6.2-1.06q12.06,0,12.07,12.56v18.95h4.35ZM438,185.91a9.73,9.73,0,0,1-8.09,3.83q-10.45,0-10.45-12.88a44.28,44.28,0,0,1,.82-10.12,10.63,10.63,0,0,1,2.12-4.12c.89-1,1.68-1.55,2.37-1.55H430q5.17,0,7.78,2.9,3.22,3.56,3.22,11.34,0,6.75-3,10.6m3.29-24.64q-3.87-3.86-10.35-3.86H414.21v3.86h6q-4,3.42-5,10.12a44.92,44.92,0,0,0-.24,5.6q0,16.41,14.85,16.41a14.67,14.67,0,0,0,11.07-4.81q4.86-5.1,4.86-13.54,0-9.54-4.35-13.78m-34.74,3.29a7.51,7.51,0,0,0-2-5.67,5.86,5.86,0,0,0-4.15-1.61h-.2a6,6,0,0,0-2.4.33v3.33l.41-.1h.44q3.49,0,3.5,4.42v11.66h4.42Zm-15.65-3.09a8.52,8.52,0,0,0-7.51-4.19,7,7,0,0,0-6.75,4.12V166h.72q2.43-4.84,5.76-4.84,6,0,6,13.08,0,7.62-3.08,11.73a8.67,8.67,0,0,1-7.3,3.66q-9.71,0-9.7-13.15V157.41h-4.42V176q0,17.21,14.12,17.2a13,13,0,0,0,10.45-5q4.42-5.4,4.42-14.5,0-8-2.74-12.22m-34.09,11.07q0-8.92-5.07-12.49-4-2.9-12.55-2.9a67,67,0,0,0-13.33,1.22v3.75c2.6-.48,4.8-.85,6.58-1.12a14,14,0,0,0-1.68,6.33v14.93q0,7.23-5.11,7.22a2.93,2.93,0,0,1-1.85-.62l-.48.16v2.6a3.45,3.45,0,0,0,3.23,1.42,7.46,7.46,0,0,0,6-2.7c1.74-2,2.6-4.79,2.6-8.44V162.26c0-.84.27-1.28.79-1.32a25.51,25.51,0,0,1,2.81-.23q6.86,0,9.94,2.17,3.74,2.72,3.74,9.46v20.17h4.42Zm-50.35,16.25H304c-1.26,0-1.89-1-1.89-3.1V172.34q0-7.58-4.63-11.7a14.91,14.91,0,0,0-10.18-3.49,23,23,0,0,0-7.43,1.09v4h.41a14.48,14.48,0,0,1,6.17-1.19q11.31,0,11.31,12.56v11.86a5.66,5.66,0,0,0,.68,3.3H278.82v3.72h27.67ZM272,164.56a7.51,7.51,0,0,0-2-5.67,5.84,5.84,0,0,0-4.15-1.61h-.2a6.11,6.11,0,0,0-2.4.33v3.33a3.37,3.37,0,0,0,.41-.1h.45q3.49,0,3.49,4.42v39.42H272Zm-12.71,8.84H243V177h16.28Zm-23.19,6.36v-9.59q0-6.4-3.22-9.86a10.16,10.16,0,0,0-7.81-3.16,13.79,13.79,0,0,0-3.5.39v3.79H222a5.73,5.73,0,0,1,2.33-.39,6.54,6.54,0,0,1,5.47,2.55c1.31,1.7,2,4.14,2,7.3v.47a26.76,26.76,0,0,1-1.68,10,14.58,14.58,0,0,1-4.15,6,6.22,6.22,0,0,1-3.8,1.68,5.76,5.76,0,0,1-3-.73l-.34.2v3.79a4,4,0,0,0,3,1q6.09,0,9.46-9.85a.58.58,0,0,1,.58-.4.49.49,0,0,1,.41.4,35.15,35.15,0,0,0,1.13,9.19h4.08l.07-.46a48.88,48.88,0,0,1-1.48-12.29m-22.94-15.2a7.51,7.51,0,0,0-2-5.67,5.84,5.84,0,0,0-4.15-1.61h-.2a6.11,6.11,0,0,0-2.4.33v3.33a3.37,3.37,0,0,0,.41-.1h.45q3.5,0,3.49,4.42v27.25h4.43Zm-14.45,7.65q0-7.58-5-11.63a16.26,16.26,0,0,0-10.73-3.5,24.19,24.19,0,0,0-7.3.93v4.05h.41a15,15,0,0,1,6.21-1.06q12.06,0,12.06,12.56v18.95h4.36Zm-28.51-7.65a7.51,7.51,0,0,0-2-5.67,5.84,5.84,0,0,0-4.15-1.61h-.2a6.08,6.08,0,0,0-2.4.33v3.33l.41-.1h.45q3.5,0,3.49,4.42v11.66h4.42Zm-14.58,0a7.51,7.51,0,0,0-2-5.67,5.83,5.83,0,0,0-4.14-1.61h-.21a6.11,6.11,0,0,0-2.4.33v3.33a3,3,0,0,0,.41-.1h.45q3.5,0,3.5,4.42v27.25h4.42Zm-14.79,0a7.51,7.51,0,0,0-2-5.67,5.83,5.83,0,0,0-4.14-1.61h-.21a6.11,6.11,0,0,0-2.4.33v3.33a3.37,3.37,0,0,0,.41-.1h.45q3.49,0,3.49,4.42v39.42h4.43Zm-26.09,24.23h-2.47c-1.26,0-1.88-1-1.88-3.1V172.34q0-7.58-4.63-11.7a15,15,0,0,0-10.18-3.49,23.13,23.13,0,0,0-7.44,1.09v4h.41a14.51,14.51,0,0,1,6.17-1.19q11.31,0,11.31,12.56v11.86a5.56,5.56,0,0,0,.69,3.3H87.07v3.72h27.66ZM80.57,168.55c0-3.86-1-6.79-3.15-8.77a9.8,9.8,0,0,0-7-2.57,6.68,6.68,0,0,0-3.36.66v3.6l.34.06a5.51,5.51,0,0,1,2.44-.59q6.27,0,6.27,8.07v19.78H66.31v3.72H80.57ZM59,179.76v-9.59q0-6.4-3.23-9.86A10.16,10.16,0,0,0,48,157.15a13.85,13.85,0,0,0-3.5.39v3.79H45a5.73,5.73,0,0,1,2.33-.39,6.52,6.52,0,0,1,5.47,2.55c1.32,1.7,2,4.14,2,7.3v.47a26.76,26.76,0,0,1-1.68,10,14.58,14.58,0,0,1-4.15,6,6.22,6.22,0,0,1-3.8,1.68,5.79,5.79,0,0,1-3-.73l-.34.2v3.79a4,4,0,0,0,3,1q6.09,0,9.46-9.85a.59.59,0,0,1,.58-.4.49.49,0,0,1,.41.4,35.15,35.15,0,0,0,1.13,9.19h4.08l.07-.46A48.89,48.89,0,0,1,59,179.76m-19.87,9H36.69c-1.25,0-1.88-1-1.88-3.1V172.34q0-7.58-4.63-11.7A14.93,14.93,0,0,0,20,157.15a23.13,23.13,0,0,0-7.44,1.09v4H13a14.51,14.51,0,0,1,6.17-1.19q11.33,0,11.32,12.56v11.86a5.58,5.58,0,0,0,.68,3.3H11.5v3.72H39.16Z" transform="translate(-11.5 -114.98)" style="fill:#595a5c"/></svg>