<svg xmlns="http://www.w3.org/2000/svg" viewBox="0 0 77 48"><defs><style>.cls-1{fill:#818285;}.cls-2{fill:#e31837;}</style></defs><title>logoFooter</title><g id="Layer_2"><g id="footer"><path class="cls-1" d="M6.49,41.57H5.85a.24.24,0,0,0-.19.1L3.22,45.45l-1-3.71A.23.23,0,0,0,2,41.57H1.41a.23.23,0,0,0-.22.18L0,47.68a.24.24,0,0,0,.05.18A.21.21,0,0,0,.23,48H.86a.23.23,0,0,0,.22-.18l.71-3.55.68,2.63a.23.23,0,0,0,.22.17h.54a.21.21,0,0,0,.19-.11l1.7-2.59-.67,3.36a.2.2,0,0,0,0,.18.23.23,0,0,0,.18.09H5.3a.23.23,0,0,0,.22-.18l1.19-5.93a.26.26,0,0,0,0-.19A.21.21,0,0,0,6.49,41.57Z"/><path class="cls-1" d="M9.77,43.35a2.2,2.2,0,0,0-1.41.52,3,3,0,0,0-.9,1.76,2.2,2.2,0,0,0,.22,1.82A1.52,1.52,0,0,0,8.93,48a2.18,2.18,0,0,0,1.41-.52,2.86,2.86,0,0,0,.9-1.76A2.19,2.19,0,0,0,11,43.9,1.56,1.56,0,0,0,9.77,43.35Zm.43,2.28a1.93,1.93,0,0,1-.5,1.14A1,1,0,0,1,9,47a.64.64,0,0,1-.51-.21,1.55,1.55,0,0,1,0-1.08A2,2,0,0,1,9,44.58a1,1,0,0,1,.65-.24.64.64,0,0,1,.52.21C10.37,44.79,10.26,45.34,10.2,45.63Z"/><path class="cls-1" d="M14.86,43.43h-.6l.2-1a.25.25,0,0,0,0-.19.25.25,0,0,0-.18-.08h-.6a.22.22,0,0,0-.22.18l-.22,1.1h-.33a.22.22,0,0,0-.22.18l-.09.46a.2.2,0,0,0,0,.18.23.23,0,0,0,.18.09H13l-.45,2.24a1.21,1.21,0,0,0,.19,1,1,1,0,0,0,.86.36h.43a.23.23,0,0,0,.22-.18l.1-.52a.22.22,0,0,0,0-.19.21.21,0,0,0-.17-.08h-.32a.35.35,0,0,1-.2,0,.41.41,0,0,1,0-.28l.46-2.31h.69a.22.22,0,0,0,.22-.19l.09-.45a.23.23,0,0,0-.22-.27Z"/><path class="cls-1" d="M17.64,41.56H17a.23.23,0,0,0-.22.18l-.13.68a.26.26,0,0,0,0,.19.25.25,0,0,0,.18.08h.67a.25.25,0,0,0,.23-.18l.13-.68a.2.2,0,0,0-.05-.18A.2.2,0,0,0,17.64,41.56Z"/><path class="cls-1" d="M17.23,43.4h-.6a.22.22,0,0,0-.22.19l-.82,4.09a.26.26,0,0,0,.05.19.23.23,0,0,0,.17.08h.6a.23.23,0,0,0,.22-.18l.82-4.1a.2.2,0,0,0-.05-.18A.2.2,0,0,0,17.23,43.4Z"/><path class="cls-1" d="M20.78,43.35a2.2,2.2,0,0,0-1.42.52,3,3,0,0,0-.9,1.76,2.19,2.19,0,0,0,.22,1.82,1.54,1.54,0,0,0,1.26.55,2.2,2.2,0,0,0,1.41-.52,3,3,0,0,0,.9-1.76A2.2,2.2,0,0,0,22,43.9,1.52,1.52,0,0,0,20.78,43.35Zm.43,2.28a2,2,0,0,1-.5,1.14A1,1,0,0,1,20,47a.61.61,0,0,1-.5-.21c-.18-.22-.12-.67,0-1.08a2,2,0,0,1,.5-1.14,1,1,0,0,1,.66-.24.62.62,0,0,1,.51.21C21.36,44.77,21.29,45.23,21.21,45.63Z"/><path class="cls-1" d="M26.05,43.35a2,2,0,0,0-.93.23.26.26,0,0,0-.05-.09.21.21,0,0,0-.17-.09h-.6a.22.22,0,0,0-.22.19l-.82,4.09a.22.22,0,0,0,0,.19.25.25,0,0,0,.18.08h.6a.23.23,0,0,0,.22-.18l.51-2.52a1,1,0,0,1,1-.91.63.63,0,0,1,.49.17.85.85,0,0,1,.07.65l-.5,2.52a.22.22,0,0,0,.05.19.21.21,0,0,0,.17.08h.6a.23.23,0,0,0,.22-.18l.52-2.62a1.54,1.54,0,0,0-.24-1.33A1.39,1.39,0,0,0,26.05,43.35Z"/><path class="cls-1" d="M34.88,41.52a2.81,2.81,0,0,0-1.78.67c-.73.61-.86,1.25-1.12,2.53s-.38,1.94.13,2.58a2,2,0,0,0,1.57.7,2.79,2.79,0,0,0,2.62-1.91.26.26,0,0,0,0-.21.23.23,0,0,0-.19-.1h-.63a.24.24,0,0,0-.21.14A1.58,1.58,0,0,1,33.79,47a.94.94,0,0,1-.76-.33c-.23-.29-.22-.58,0-1.85s.36-1.57.75-1.9a1.48,1.48,0,0,1,1-.36.89.89,0,0,1,.94,1,.22.22,0,0,0,.22.22h.65a.23.23,0,0,0,.23-.22,2,2,0,0,0-.51-1.47A2,2,0,0,0,34.88,41.52Z"/><path class="cls-1" d="M39.51,43.35a2.2,2.2,0,0,0-1.42.52,3,3,0,0,0-.9,1.76,2.19,2.19,0,0,0,.22,1.82,1.54,1.54,0,0,0,1.26.55,2.2,2.2,0,0,0,1.41-.52,2.94,2.94,0,0,0,.9-1.76,2.2,2.2,0,0,0-.22-1.82A1.54,1.54,0,0,0,39.51,43.35ZM38.77,47a.61.61,0,0,1-.5-.21c-.18-.22-.12-.67,0-1.08a2,2,0,0,1,.51-1.13,1,1,0,0,1,.66-.25.62.62,0,0,1,.51.21c.2.24.09.79,0,1.08a2,2,0,0,1-.5,1.14A1,1,0,0,1,38.77,47Z"/><path class="cls-1" d="M44.51,43.35a2,2,0,0,0-.93.23.26.26,0,0,0,0-.09.21.21,0,0,0-.18-.09h-.59a.24.24,0,0,0-.23.19l-.81,4.09a.22.22,0,0,0,0,.19.25.25,0,0,0,.18.08h.6a.23.23,0,0,0,.22-.18l.5-2.52a1,1,0,0,1,1-.91.62.62,0,0,1,.49.17.81.81,0,0,1,.08.65l-.5,2.52a.22.22,0,0,0,0,.19.25.25,0,0,0,.18.08h.6a.23.23,0,0,0,.22-.18l.52-2.62a1.54,1.54,0,0,0-.24-1.33A1.39,1.39,0,0,0,44.51,43.35Z"/><path class="cls-1" d="M49.58,43.43H49l.2-1a.21.21,0,0,0,0-.19.25.25,0,0,0-.18-.08h-.6a.22.22,0,0,0-.22.18l-.22,1.1h-.33a.23.23,0,0,0-.22.18l-.09.46a.22.22,0,0,0,0,.19.25.25,0,0,0,.18.08h.24l-.45,2.24a1.2,1.2,0,0,0,.19,1,1,1,0,0,0,.86.36h.42a.25.25,0,0,0,.23-.18l.1-.52a.27.27,0,0,0-.05-.19.23.23,0,0,0-.17-.08h-.32c-.06,0-.16,0-.2,0a.4.4,0,0,1,0-.28l.47-2.31h.69a.23.23,0,0,0,.22-.18l.09-.46a.23.23,0,0,0-.22-.27Z"/><path class="cls-1" d="M54.42,43.82a1.29,1.29,0,0,0-1.08-.47,2,2,0,0,0-.94.24.3.3,0,0,0,0-.1.23.23,0,0,0-.18-.09h-.6a.22.22,0,0,0-.22.19l-.82,4.09a.22.22,0,0,0,.05.19.21.21,0,0,0,.17.08h.6a.23.23,0,0,0,.22-.18l.51-2.52a1,1,0,0,1,1-.91.5.5,0,0,1,.48.21.21.21,0,0,0,.15.09.27.27,0,0,0,.17-.06l.53-.45A.22.22,0,0,0,54.42,43.82Z"/><path class="cls-1" d="M56.84,43.35a2.2,2.2,0,0,0-1.41.52,2.94,2.94,0,0,0-.9,1.76,2.19,2.19,0,0,0,.22,1.82A1.54,1.54,0,0,0,56,48a2.2,2.2,0,0,0,1.42-.52,2.94,2.94,0,0,0,.9-1.76,2.2,2.2,0,0,0-.22-1.82A1.54,1.54,0,0,0,56.84,43.35Zm.44,2.28a1.92,1.92,0,0,1-.51,1.14,1,1,0,0,1-.66.24.6.6,0,0,1-.5-.21c-.18-.22-.12-.67,0-1.08a1.92,1.92,0,0,1,.51-1.13,1,1,0,0,1,.66-.25.62.62,0,0,1,.51.21C57.44,44.79,57.33,45.34,57.28,45.63Z"/><path class="cls-1" d="M60.72,47h-.33c-.16,0-.2,0-.21,0a.51.51,0,0,1,0-.29l1-4.81a.24.24,0,0,0,0-.18.21.21,0,0,0-.18-.09h-.59a.22.22,0,0,0-.22.19l-1,4.83a1.13,1.13,0,0,0,.18,1,1,1,0,0,0,.86.35h.43a.25.25,0,0,0,.23-.18l.1-.52a.24.24,0,0,0,0-.18A.2.2,0,0,0,60.72,47Z"/><path class="cls-2" d="M46.47,37.88l1-9.42a5.13,5.13,0,0,0-1.15-4.19A4.7,4.7,0,0,0,42.88,23a6.28,6.28,0,0,0-4.62,1.87A4,4,0,0,0,34.57,23a5.76,5.76,0,0,0-3.85,1.53l.15-1.36H27.28L25.66,37.87h3.68l1-8.9a2.71,2.71,0,0,1,2.75-2.69c1.16,0,2.36.68,2.14,2.69l-1,8.9H37.9l1-9a2.71,2.71,0,0,1,2.75-2.6c1.16,0,2.35.68,2.13,2.69l-1,8.9Z"/><path class="cls-2" d="M23.36,37.87l.34-3.11H22.29c-.94,0-1.25-.45-1.16-1.32l1.73-15.7H19.18L17.43,33.66a3.54,3.54,0,0,0,3.84,4.21Z"/><polygon class="cls-2" points="14.18 37.87 14.57 34.37 5.24 34.37 5.78 29.48 13.72 29.48 14.1 25.97 6.16 25.97 6.68 21.25 16.01 21.25 16.39 17.74 3.14 17.74 0.92 37.87 14.18 37.87"/><path class="cls-2" d="M62.45,30.5c.3-2.66.14-4.33-1-5.72A5.46,5.46,0,0,0,57,23a6.75,6.75,0,0,0-4.75,1.81c-1.48,1.39-2,3.06-2.29,5.72s-.14,4.35,1,5.74A5.41,5.41,0,0,0,55.38,38a6.8,6.8,0,0,0,4.77-1.8c1.49-1.39,2-3.06,2.3-5.74m-3.67,0c-.17,1.52-.4,2.82-1.24,3.59a2.63,2.63,0,0,1-1.8.65,2,2,0,0,1-1.63-.65c-.68-.77-.62-2.07-.45-3.59s.39-2.8,1.24-3.57a2.52,2.52,0,0,1,1.77-.65,2.09,2.09,0,0,1,1.65.65c.68.77.62,2,.46,3.57"/><path class="cls-1" d="M65.17,0H75.79A1.21,1.21,0,0,1,77,1.21v9.2a1.21,1.21,0,0,1-1.21,1.21H67C66.26,7.36,69.42,4,73.65,3.2a11.86,11.86,0,0,0-2.22-.3A8.6,8.6,0,0,0,64,6.28V1.21A1.22,1.22,0,0,1,65.17,0"/><path class="cls-2" d="M61.39,19.29H50.77a1.21,1.21,0,0,1-1.21-1.21V8.89a1.22,1.22,0,0,1,1.21-1.22h8.81c.71,4.26-2.44,7.67-6.67,8.42a11.74,11.74,0,0,0,2.22.3A8.55,8.55,0,0,0,62.6,13v5.07a1.21,1.21,0,0,1-1.21,1.21"/></g></g></svg>