<svg width="170" height="55" viewBox="0 0 170 55" fill="none" xmlns="http://www.w3.org/2000/svg">
<g clip-path="url(#clip0_1738_601)">
<path d="M19.7471 8.13132L15.7668 49.2812L50.9787 52.6689L54.9589 11.5189L19.7471 8.13132Z" fill="#F9A34E"/>
<path d="M13.9505 29.7881L10.2317 53.3723" stroke="#010101" stroke-width="1.5" stroke-miterlimit="10" stroke-linecap="round"/>
<path d="M5.27686 53.8893L10.1954 53.6104" stroke="#010101" stroke-width="1.5" stroke-miterlimit="10" stroke-linecap="round"/>
<path d="M20.874 30.2852L22.4478 53.6466" stroke="#010101" stroke-width="1.5" stroke-miterlimit="10" stroke-linecap="round"/>
<path d="M27.5378 53.7871L22.4583 53.8646" stroke="#010101" stroke-width="1.5" stroke-miterlimit="10" stroke-linecap="round"/>
<path d="M30.8255 34.3558L21.97 34.082" stroke="#010101" stroke-width="1.5" stroke-miterlimit="10" stroke-linecap="round"/>
<path d="M13.0262 34.3558L4.17065 34.082" stroke="#010101" stroke-width="1.5" stroke-miterlimit="10" stroke-linecap="round"/>
<path d="M1.06982 32.0205L4.37311 34.0821" stroke="#010101" stroke-width="1.5" stroke-miterlimit="10" stroke-linecap="round"/>
<path d="M1.17358 36.5373L4.43532 34.2012" stroke="#010101" stroke-width="1.5" stroke-miterlimit="10" stroke-linecap="round"/>
<path d="M33.3029 31.4297L30.6904 34.2165" stroke="#010101" stroke-width="1.5" stroke-miterlimit="10" stroke-linecap="round"/>
<path d="M33.1626 36.3871L30.7163 34.2012" stroke="#010101" stroke-width="1.5" stroke-miterlimit="10" stroke-linecap="round"/>
<path d="M21.6789 42.6502C21.6789 42.6502 20.0584 43.9348 17.046 43.9348C15.2761 43.9494 13.534 43.4954 11.9976 42.6191" stroke="#010101" stroke-width="1.5" stroke-miterlimit="10" stroke-linecap="round"/>
<path d="M33.7756 10.0533C31.5879 7.07521 28.5063 4.86908 24.9772 3.75451C19.077 1.88974 12.2471 4.3761 8.6166 9.75804C7.09797 12.0815 6.35861 14.8261 6.50517 17.5958C6.65173 20.3654 7.67663 23.0171 9.43204 25.1683C12.3718 28.7269 16.0022 29.9701 20.604 29.162C24.972 28.3954 27.7404 26.2405 29.2362 22.0086C30.6229 18.0718 29.2985 12.9903 25.7719 10.7215C22.1362 8.36981 17.6591 8.74796 14.6622 11.7057C12.4808 13.8554 11.7952 16.4712 12.7301 19.3512C13.5767 21.9412 15.3894 23.6817 18.2096 24.0443C19.3036 24.2198 20.4252 24.0673 21.4322 23.6062C22.4392 23.1451 23.2862 22.3962 23.8657 21.4543C24.9305 19.9003 25.0811 18.1133 24.0164 16.6214C23.2446 15.6232 22.1868 14.8825 20.9832 14.4977C19.4717 14.0108 18.1369 14.8447 17.5085 16.2744C16.88 17.704 17.4617 18.8902 18.9212 19.6051L18.703 20.1231C17.7006 19.7501 16.558 19.5688 15.7426 18.9524C14.5739 18.077 14.2831 16.6991 14.6726 15.2591C14.8667 14.3535 15.3206 13.5237 15.979 12.8708C16.6374 12.2178 17.4719 11.7698 18.381 11.5814C19.3675 11.3448 20.3995 11.3773 21.3691 11.6753C22.3386 11.9733 23.2099 12.5259 23.8917 13.2752C25.9069 15.2902 26.3172 18.2117 25.0136 20.9881C24.3219 22.371 23.2324 23.5167 21.8844 24.2788C20.5364 25.041 18.9911 25.385 17.4461 25.2667C15.4799 25.1027 13.6229 24.2958 12.1634 22.9714C10.704 21.647 9.72377 19.8792 9.3749 17.9423C9.02954 15.8 9.38253 13.6037 10.382 11.6764C11.3814 9.7491 12.9746 8.19247 14.9271 7.23542C19.0458 5.31367 22.9516 5.91972 26.4679 8.59256C30.3217 11.514 31.6617 15.5388 30.7372 20.2267C30.2354 22.8045 28.9453 25.1642 27.0443 26.9812C25.1434 28.7982 22.7248 29.9835 20.121 30.3741C17.3762 30.7621 14.5777 30.3376 12.0727 29.1534C9.56768 27.9692 7.46654 26.0774 6.03005 23.7127C2.82545 18.3619 3.39678 11.6901 7.48434 6.65008C9.41098 4.2621 12.0187 2.51327 14.963 1.63465C17.9074 0.756037 21.0497 0.788989 23.9748 1.72916C28.3532 3.2158 31.9214 5.6141 33.7756 10.017" fill="#231F20"/>
<path d="M68.3772 46.198V36.522C68.3772 31.9015 66.2737 29.2701 62.612 29.2701C58.9503 29.2701 56.8053 31.9222 56.8053 36.522V46.198H54.9563V36.522C54.9563 31.9015 52.8787 29.2701 49.1911 29.2701C45.5034 29.2701 43.3844 31.9222 43.3844 36.522V46.198H41.5405V36.522C41.5405 30.824 44.3296 27.5244 49.1911 27.5244C52.3074 27.5244 54.6498 29.0784 55.6003 31.8393L55.8808 32.6422L56.1612 31.8393C57.1117 29.0991 59.4593 27.5244 62.612 27.5244C67.4475 27.5244 70.221 30.8033 70.221 36.522V46.198H68.3772Z" fill="#231F20"/>
<path d="M73.8151 46.1984V27.8304H75.6641V46.1984H73.8151ZM74.7396 23.9247C74.4945 23.9217 74.2556 23.8465 74.053 23.7088C73.8504 23.571 73.6931 23.3767 73.6007 23.1502C73.5083 22.9237 73.4849 22.675 73.5335 22.4353C73.5821 22.1956 73.7005 21.9755 73.8739 21.8026C74.0473 21.6297 74.2679 21.5116 74.5083 21.4631C74.7486 21.4147 74.998 21.438 75.2251 21.5301C75.4522 21.6223 75.647 21.7792 75.7852 21.9813C75.9233 22.1833 75.9987 22.4215 76.0017 22.666C76.0097 22.8342 75.9827 23.0021 75.9223 23.1593C75.8619 23.3165 75.7695 23.4595 75.6509 23.5792C75.5323 23.699 75.3901 23.7929 75.2332 23.855C75.0764 23.9172 74.9083 23.9462 74.7396 23.9403V23.9247Z" fill="#231F20"/>
<path d="M93.5466 46.198V36.522C93.5466 31.9015 91.2821 29.2701 87.314 29.2701C83.3459 29.2701 81.0814 31.9222 81.0814 36.522V46.198H79.2375V36.522C79.2375 30.824 82.1773 27.5244 87.3088 27.5244C92.4403 27.5244 95.3749 30.8033 95.3749 36.522V46.198H93.5466Z" fill="#231F20"/>
<path d="M107.591 46.5041C105.067 46.5041 102.647 45.5043 100.862 43.7246C99.0779 41.945 98.0754 39.5313 98.0754 37.0145C98.0754 34.4977 99.0779 32.084 100.862 30.3043C102.647 28.5247 105.067 27.5249 107.591 27.5249C109.008 27.5266 110.401 27.8874 111.64 28.5732C112.88 29.2591 113.924 30.2476 114.675 31.4461L115.22 32.2904V20.2471H117.064V37.0145C117.067 39.5249 116.071 41.934 114.295 43.7131C112.519 45.4921 110.108 46.4959 107.591 46.5041ZM107.591 29.2498C106.045 29.2251 104.526 29.6597 103.229 30.4984C101.931 31.337 100.913 32.5417 100.305 33.9591C99.6957 35.3765 99.5236 36.9425 99.81 38.4578C100.096 39.9731 100.828 41.3692 101.913 42.4683C102.997 43.5674 104.385 44.3199 105.9 44.6299C107.414 44.9399 108.987 44.7935 110.418 44.2092C111.849 43.625 113.073 42.6293 113.935 41.349C114.796 40.0687 115.257 38.5616 115.257 37.0197C115.276 36.0045 115.092 34.9956 114.715 34.0524C114.338 33.1091 113.776 32.2504 113.062 31.5267C112.348 30.8029 111.496 30.2287 110.557 29.8377C109.617 29.4467 108.609 29.2468 107.591 29.2498Z" fill="#231F20"/>
<path d="M129.457 46.5037C126.933 46.5037 124.513 45.5039 122.729 43.7242C120.944 41.9446 119.942 39.5309 119.942 37.0141C119.942 34.4972 120.944 32.0835 122.729 30.3039C124.513 28.5242 126.933 27.5244 129.457 27.5244C131.292 27.5211 133.088 28.0568 134.62 29.0645C136.153 30.0722 137.353 31.5074 138.073 33.1913H134.666C134.083 32.3601 133.305 31.6839 132.4 31.2216C131.494 30.7593 130.489 30.525 129.472 30.5391C127.751 30.5391 126.099 31.2213 124.882 32.4356C123.664 33.6499 122.98 35.2968 122.98 37.0141C122.98 38.7313 123.664 40.3782 124.882 41.5925C126.099 42.8068 127.751 43.489 129.472 43.489C130.468 43.4989 131.451 43.2686 132.339 42.8176C133.226 42.3667 133.991 41.7084 134.568 40.899H138.047C137.315 42.5636 136.113 43.9797 134.587 44.9748C133.062 45.97 131.279 46.5012 129.457 46.5037Z" fill="#231F20"/>
<path d="M149.536 46.5037C147.013 46.5153 144.588 45.5267 142.795 43.7553C141.002 41.984 139.989 39.5749 139.977 37.0581C139.965 34.5413 140.956 32.1229 142.733 30.335C144.509 28.5471 146.924 27.5361 149.448 27.5244C153.915 27.5244 158.771 30.736 158.963 36.6825C158.966 37.1516 158.94 37.6204 158.885 38.0863H143.428L143.465 38.4074C143.787 41.3962 146.238 43.4889 149.422 43.4889C150.29 43.5107 151.153 43.3535 151.957 43.0273C152.762 42.7011 153.49 42.2128 154.096 41.5931L157.935 41.6242C157.086 43.1002 155.864 44.3279 154.39 45.1843C152.916 46.0407 151.242 46.4956 149.536 46.5037ZM149.536 30.5391C148.137 30.5238 146.774 30.9837 145.672 31.8431C144.569 32.7026 143.793 33.9105 143.47 35.2684L143.376 35.6362H155.618L155.525 35.2684C155.188 33.9327 154.418 32.7452 153.335 31.8901C152.253 31.0351 150.917 30.5602 149.536 30.5391Z" fill="#231F20"/>
<path d="M170 46.2756C165.326 45.9545 162.76 42.8621 162.76 37.5216V30.8395H159.945V27.8299H162.76V21.0391H165.876V27.8299H169.985V30.8395H165.876V37.506C165.876 41.0387 167.221 42.9294 169.985 43.2661L170 46.2756Z" fill="#231F20"/>
</g>
<defs>
<clipPath id="clip0_1738_601">
<rect width="170" height="53.9644" fill="white" transform="translate(0 0.993164)"/>
</clipPath>
</defs>
</svg>
